<svg xmlns="http://www.w3.org/2000/svg" xmlns:xlink="http://www.w3.org/1999/xlink" width="500" zoomAndPan="magnify" viewBox="0 0 375 374.999991" height="500" preserveAspectRatio="xMidYMid meet" version="1.0"><defs><filter x="0%" y="0%" width="100%" height="100%" id="0a2b4cd95c"><feColorMatrix values="0 0 0 0 1 0 0 0 0 1 0 0 0 0 1 0 0 0 1 0" color-interpolation-filters="sRGB"/></filter><clipPath id="f2efc0c5d8"><path d="M 112.5 121.835938 L 262.5 121.835938 L 262.5 253.085938 L 112.5 253.085938 Z M 112.5 121.835938 " clip-rule="nonzero"/></clipPath><clipPath id="6ca71efb3a"><path d="M 66 67 L 309.855469 67 L 309.855469 308.410156 L 66 308.410156 Z M 66 67 " clip-rule="nonzero"/></clipPath><mask id="9513c6dfec"><g filter="url(#0a2b4cd95c)"><rect x="-37.5" width="450" fill="#000000" y="-37.499999" height="449.999989" fill-opacity="0.8"/></g></mask><clipPath id="9ccf30f284"><path d="M 7 12 L 243.855469 12 L 243.855469 238 L 7 238 Z M 7 12 " clip-rule="nonzero"/></clipPath><clipPath id="81b3e325c6"><path d="M 61 224 L 115 224 L 115 241.410156 L 61 241.410156 Z M 61 224 " clip-rule="nonzero"/></clipPath><clipPath id="84ba99278e"><path d="M 0.238281 0.441406 L 192 0.441406 L 192 221 L 0.238281 221 Z M 0.238281 0.441406 " clip-rule="nonzero"/></clipPath><clipPath id="d7d8c266cc"><rect x="0" width="244" y="0" height="242"/></clipPath></defs><rect x="-37.5" width="450" fill="#ffffff" y="-37.499999" height="449.999989" fill-opacity="1"/><rect x="-37.5" width="450" fill="#ffffff" y="-37.499999" height="449.999989" fill-opacity="1"/><rect x="-37.5" width="450" fill="#1c2120" y="-37.499999" height="449.999989" fill-opacity="1"/><g clip-path="url(#f2efc0c5d8)"><path fill="#ffffff" d="M 119.527344 187.46875 L 153.503906 221.429688 L 149.984375 224.949219 L 112.5 187.46875 L 150 149.988281 L 153.519531 153.507812 Z M 199.222656 121.871094 L 203.90625 123.050781 L 175.777344 253.050781 L 171.09375 251.875 Z M 225 149.988281 L 262.5 187.46875 L 225 224.949219 L 221.480469 221.429688 L 255.460938 187.46875 L 221.480469 153.507812 Z M 225 149.988281 " fill-opacity="1" fill-rule="nonzero"/></g><g clip-path="url(#6ca71efb3a)"><g mask="url(#9513c6dfec)"><g transform="matrix(1, 0, 0, 1, 66, 67)"><g clip-path="url(#d7d8c266cc)"><g clip-path="url(#9ccf30f284)"><path fill="#ffffff" d="M 224.910156 95.117188 C 220.441406 81.800781 213.488281 69.378906 204.449219 58.742188 C 195.410156 48.011719 184.285156 39.066406 171.769531 32.605469 C 159.253906 26.046875 145.34375 22.070312 131.042969 20.976562 C 116.738281 19.886719 102.136719 21.574219 88.425781 26.445312 C 88.425781 26.542969 88.425781 26.644531 88.230469 26.84375 C 87.832031 27.238281 87.035156 27.738281 86.042969 28.132812 C 85.050781 28.632812 83.957031 29.027344 82.863281 29.425781 C 76.804688 31.613281 70.945312 34.496094 65.28125 37.773438 C 55.152344 44.433594 46.410156 52.980469 39.257812 62.621094 C 40.648438 60.632812 42.238281 58.84375 43.726562 56.953125 C 45.316406 55.167969 46.90625 53.378906 48.59375 51.6875 C 51.871094 48.210938 55.546875 45.128906 59.324219 42.34375 C 60.414062 41.453125 61.507812 40.753906 62.300781 40.359375 C 63.097656 39.960938 63.59375 39.859375 63.691406 40.160156 C 63.691406 40.457031 63.296875 40.953125 62.5 41.75 C 61.804688 42.542969 60.714844 43.4375 59.621094 44.332031 C 49.6875 52.183594 40.847656 62.621094 34.390625 73.949219 C 27.832031 85.277344 23.660156 97.503906 20.980469 108.632812 C 19.09375 123.144531 20.484375 137.953125 24.753906 151.566406 C 29.027344 165.183594 36.277344 177.703125 45.515625 187.941406 C 54.753906 198.179688 66.078125 206.328125 78.195312 211.695312 C 90.316406 217.058594 103.328125 219.742188 115.941406 219.84375 C 116.9375 219.84375 118.128906 219.941406 118.625 220.140625 C 119.320312 220.339844 119.121094 220.539062 118.226562 220.539062 C 105.015625 221.136719 91.011719 218.847656 77.601562 213.183594 C 70.945312 210.300781 64.386719 206.726562 58.328125 202.253906 C 52.269531 197.78125 46.507812 192.511719 41.441406 186.550781 C 36.375 180.585938 31.90625 174.027344 28.332031 166.773438 C 24.753906 159.617188 21.875 151.964844 19.988281 143.914062 C 18.199219 135.863281 17.304688 127.617188 17.402344 119.167969 L 17.402344 117.578125 L 17.503906 115.988281 L 17.703125 112.808594 C 17.902344 110.722656 18.097656 108.632812 18.398438 106.546875 C 19.09375 102.371094 19.789062 98.199219 20.980469 94.125 L 21.773438 91.144531 L 22.769531 88.160156 C 23.363281 86.171875 24.160156 84.285156 24.953125 82.398438 C 19.886719 93.128906 16.609375 105.054688 15.515625 117.679688 C 15.816406 118.96875 15.914062 121.058594 15.914062 123.542969 C 16.113281 129.503906 16.808594 135.367188 17.902344 141.132812 C 17.902344 140.832031 18 140.734375 18.097656 140.636719 C 18.496094 140.636719 19.191406 142.722656 19.6875 145.207031 C 22.769531 159.617188 28.925781 173.234375 37.570312 185.160156 C 37.765625 185.457031 37.964844 185.753906 38.164062 185.953125 C 49.289062 200.363281 64.089844 211.894531 80.679688 218.847656 C 97.269531 226.003906 115.546875 228.589844 133.324219 226.601562 C 134.417969 226.5 135.511719 226.304688 136.605469 226.203125 C 137.695312 226.003906 138.789062 225.90625 139.882812 225.707031 L 143.160156 225.011719 L 144.847656 224.714844 L 146.4375 224.316406 L 149.714844 223.519531 L 152.894531 222.527344 C 155.078125 221.929688 157.066406 221.035156 159.253906 220.339844 C 163.425781 218.652344 167.496094 216.960938 171.371094 214.773438 C 173.355469 213.78125 175.246094 212.589844 177.132812 211.496094 C 178.125 210.898438 179.019531 210.300781 179.914062 209.707031 C 180.808594 209.109375 181.800781 208.511719 182.695312 207.816406 C 197.199219 197.480469 208.820312 183.371094 216.367188 167.371094 C 216.667969 166.375 217.261719 165.082031 217.757812 164.488281 C 218.257812 163.792969 218.453125 163.988281 218.15625 164.984375 C 218.355469 164.984375 218.652344 164.882812 218.554688 165.183594 C 213.984375 177.605469 207.128906 189.035156 198.089844 199.070312 C 188.953125 209.011719 177.53125 217.457031 163.820312 223.222656 C 154.382812 227.199219 144.453125 229.78125 134.320312 230.972656 C 144.847656 230.378906 154.882812 228.488281 163.820312 226.003906 C 176.335938 220.9375 187.960938 213.484375 197.792969 204.339844 C 207.628906 195.195312 215.871094 184.5625 222.230469 173.132812 L 221.535156 173.929688 C 222.03125 172.933594 222.625 171.941406 223.125 171.246094 C 223.621094 170.550781 223.917969 170.050781 224.117188 170.152344 C 224.316406 170.152344 224.316406 170.550781 224.117188 171.34375 C 223.917969 172.039062 223.519531 173.035156 222.925781 174.128906 C 220.34375 179.691406 217.261719 185.160156 213.6875 190.328125 C 210.109375 195.496094 206.039062 200.265625 201.667969 204.835938 C 197.199219 209.308594 192.429688 213.484375 187.265625 217.160156 C 182.097656 220.835938 176.535156 224.117188 170.773438 226.898438 C 147.628906 238.128906 120.3125 240.8125 94.882812 234.550781 C 82.167969 231.371094 69.953125 226.003906 59.023438 218.652344 C 48.097656 211.296875 38.363281 202.054688 30.417969 191.417969 C 22.46875 180.785156 16.410156 168.660156 12.535156 155.941406 C 8.5625 143.21875 7.074219 129.703125 7.570312 116.285156 C 8.464844 95.019531 15.617188 74.148438 27.636719 56.757812 C 39.554688 39.265625 56.441406 25.351562 75.8125 16.703125 C 78.691406 15.3125 81.472656 14.617188 83.460938 14.121094 C 85.449219 13.722656 86.839844 13.722656 86.9375 14.21875 C 87.035156 15.113281 82.46875 17.402344 76.90625 19.984375 C 58.429688 28.332031 42.535156 41.847656 31.210938 58.445312 C 19.789062 75.042969 12.933594 94.621094 11.742188 114.796875 C 11.246094 123.640625 11.542969 132.585938 13.132812 141.230469 C 14.621094 149.878906 17.207031 158.425781 20.582031 166.476562 C 15.417969 153.753906 12.933594 140.136719 12.933594 126.621094 C 12.636719 121.453125 12.835938 116.285156 13.332031 111.117188 C 13.828125 105.949219 14.820312 100.78125 16.011719 95.613281 C 17.402344 90.546875 18.992188 85.476562 21.078125 80.609375 C 23.164062 75.738281 25.550781 70.96875 28.332031 66.394531 C 34.984375 55.265625 43.429688 45.726562 53.066406 37.972656 C 62.699219 30.222656 73.527344 24.058594 85.148438 19.886719 C 96.671875 15.710938 108.890625 13.324219 121.40625 12.929688 C 127.664062 12.730469 133.921875 13.027344 140.179688 13.824219 C 146.4375 14.617188 152.796875 16.007812 158.953125 17.796875 C 171.074219 21.375 181.800781 26.644531 191.4375 32.804688 C 196.203125 35.984375 200.675781 39.363281 204.945312 43.042969 C 209.117188 46.71875 213.089844 50.695312 216.667969 54.867188 C 220.34375 59.042969 223.621094 63.515625 226.601562 68.183594 C 229.578125 72.855469 232.261719 77.925781 234.644531 83.09375 C 236.929688 88.359375 238.917969 93.824219 240.40625 99.589844 C 241.898438 105.355469 242.988281 111.316406 243.585938 117.578125 C 243.785156 119.765625 243.683594 122.25 243.386719 123.042969 C 243.289062 123.441406 243.089844 123.441406 242.890625 123.042969 C 242.691406 122.648438 242.59375 121.851562 242.492188 120.757812 C 240.507812 96.808594 231.269531 75.140625 217.0625 57.75 C 213.585938 53.378906 209.613281 49.300781 205.441406 45.527344 C 203.355469 43.539062 201.171875 41.847656 198.984375 39.960938 C 197.894531 39.066406 196.699219 38.269531 195.609375 37.375 C 194.515625 36.480469 193.222656 35.785156 192.132812 34.890625 C 187.363281 31.710938 182.398438 28.730469 177.132812 26.246094 C 171.867188 23.761719 166.304688 21.574219 160.644531 19.886719 C 148.425781 16.207031 135.910156 14.617188 123.492188 14.816406 C 111.074219 15.113281 98.855469 17.300781 87.234375 21.476562 C 75.613281 25.648438 64.6875 31.710938 54.953125 39.5625 C 45.21875 47.414062 36.773438 56.953125 30.117188 67.886719 C 28.332031 70.867188 26.640625 73.851562 25.152344 76.929688 C 27.832031 71.960938 30.8125 67.191406 34.191406 62.820312 C 37.570312 58.445312 41.242188 54.371094 45.117188 50.59375 C 59.820312 35.289062 78.792969 24.65625 99.15625 20.082031 C 119.519531 15.511719 141.074219 16.902344 160.839844 24.257812 C 168.488281 27.140625 175.839844 30.71875 182.59375 35.089844 C 189.449219 39.464844 195.707031 44.632812 201.371094 50.296875 C 202.859375 51.6875 204.152344 53.277344 205.542969 54.769531 C 206.933594 56.257812 208.125 57.847656 209.414062 59.441406 C 211.898438 62.621094 214.28125 66 216.367188 69.476562 C 220.539062 76.433594 224.015625 83.886719 226.5 91.839844 C 227.097656 93.824219 227.691406 95.8125 227.792969 97.402344 C 227.992188 98.992188 227.992188 100.1875 227.691406 100.683594 C 227.492188 101.082031 226.996094 100.683594 226.5 99.691406 C 226.101562 98.695312 225.507812 97.105469 224.910156 95.117188 Z M 79.488281 224.117188 C 72.433594 221.433594 65.679688 217.953125 59.324219 213.78125 C 71.539062 222.328125 85.546875 228.390625 100.148438 231.472656 C 114.75 234.550781 130.046875 234.652344 144.75 231.667969 C 133.921875 233.359375 122.699219 233.65625 111.570312 232.464844 C 100.546875 231.171875 89.621094 228.390625 79.488281 224.117188 Z M 79.488281 224.117188 " fill-opacity="1" fill-rule="nonzero"/></g><g clip-path="url(#81b3e325c6)"><path fill="#ffffff" d="M 113.0625 240.914062 C 104.121094 239.917969 95.28125 237.832031 86.738281 235.046875 C 78.195312 232.265625 70.050781 228.789062 62.5 225.011719 C 61.804688 224.613281 61.308594 224.515625 61.605469 224.8125 C 61.90625 225.210938 62.699219 225.707031 63.496094 226.105469 C 70.746094 229.683594 78.691406 233.0625 86.9375 235.644531 C 95.183594 238.328125 103.921875 240.316406 112.464844 241.308594 C 113.460938 241.410156 114.351562 241.410156 114.453125 241.210938 C 114.652344 241.210938 113.957031 241.011719 113.0625 240.914062 Z M 113.0625 240.914062 " fill-opacity="1" fill-rule="nonzero"/></g><g clip-path="url(#84ba99278e)"><path fill="#ffffff" d="M 51.972656 219.148438 C 40.351562 211.394531 29.820312 201.257812 21.476562 189.234375 C 13.230469 177.207031 6.972656 163.292969 3.695312 148.585938 C 0.417969 133.878906 -0.078125 118.375 2.40625 103.167969 C 4.886719 87.960938 10.449219 73.15625 18.597656 60.035156 C 31.808594 38.570312 51.277344 22.171875 73.429688 12.332031 C 74.820312 11.734375 76.210938 11.039062 77.601562 10.542969 L 81.871094 8.953125 C 84.753906 7.960938 87.632812 6.964844 90.511719 6.269531 C 93.394531 5.375 96.375 4.777344 99.355469 4.183594 C 102.335938 3.6875 105.3125 3.089844 108.394531 2.792969 C 111.375 2.394531 114.453125 2.195312 117.53125 1.996094 C 119.023438 1.898438 120.609375 1.898438 122.101562 1.898438 C 123.589844 1.796875 125.179688 1.898438 126.671875 1.898438 C 128.160156 1.996094 129.75 1.898438 131.238281 1.996094 C 132.730469 2.09375 134.320312 2.195312 135.808594 2.292969 C 137.300781 2.394531 138.890625 2.59375 140.378906 2.792969 C 141.171875 2.890625 141.867188 2.988281 142.664062 3.089844 L 144.949219 3.488281 C 152.992188 4.777344 160.941406 6.867188 168.390625 9.550781 C 175.941406 12.234375 182.992188 15.511719 189.648438 19.191406 C 190.742188 19.785156 191.535156 20.082031 191.238281 19.6875 C 190.839844 19.191406 189.746094 18.394531 188.457031 17.699219 C 174.550781 9.945312 159.253906 4.679688 143.359375 2.292969 C 127.464844 -0.0898438 111.175781 0.503906 95.28125 4.082031 C 79.488281 7.660156 64.289062 14.417969 50.980469 23.960938 C 37.867188 33.203125 26.441406 45.328125 18 59.339844 C 9.855469 72.65625 4.292969 87.566406 1.90625 102.96875 C -0.574219 118.375 -0.078125 134.074219 3.296875 149.082031 C 6.675781 164.089844 13.035156 178.203125 21.675781 190.328125 C 30.21875 202.453125 41.046875 212.6875 52.964844 220.441406 C 53.5625 220.835938 54.058594 220.9375 53.859375 220.636719 C 53.460938 220.242188 52.566406 219.546875 51.972656 219.148438 Z M 51.972656 219.148438 " fill-opacity="1" fill-rule="nonzero"/></g><path fill="#ffffff" d="M 95.777344 5.175781 C 87.335938 7.261719 79.089844 10.34375 71.242188 14.21875 C 63.496094 18.097656 56.042969 22.765625 49.289062 28.234375 C 42.4375 33.601562 36.078125 39.761719 30.515625 46.421875 C 24.855469 53.179688 19.886719 60.53125 15.617188 68.382812 C 10.949219 76.832031 7.570312 85.875 5.382812 95.21875 C 3.199219 104.558594 2.105469 114.296875 2.601562 124.335938 C 2.800781 130.996094 3.796875 137.355469 5.085938 143.617188 C 6.378906 149.777344 8.164062 155.742188 10.253906 161.503906 C 11.246094 164.386719 12.535156 167.269531 13.730469 170.050781 C 14.425781 171.445312 15.019531 172.835938 15.714844 174.226562 C 16.410156 175.617188 17.105469 177.007812 17.902344 178.402344 C 20.878906 183.867188 24.160156 189.234375 28.03125 194.5 C 28.53125 195.195312 29.125 195.792969 29.421875 195.890625 C 29.523438 195.792969 29.226562 195.296875 28.726562 194.601562 C 20.582031 183.171875 14.226562 170.945312 9.855469 158.027344 C 5.582031 145.105469 3.398438 131.390625 3.695312 117.179688 C 3.894531 110.621094 4.6875 104.0625 5.980469 97.601562 C 7.273438 91.339844 9.160156 85.082031 11.542969 79.019531 C 16.3125 66.894531 23.164062 55.761719 31.410156 45.921875 C 48.199219 26.34375 70.84375 12.234375 96.074219 5.671875 C 97.167969 5.375 97.765625 5.175781 97.765625 4.976562 C 97.664062 4.878906 96.769531 4.976562 95.777344 5.175781 Z M 95.777344 5.175781 " fill-opacity="1" fill-rule="nonzero"/><path fill="#ffffff" d="M 23.265625 113.40625 C 22.371094 121.652344 22.46875 130.199219 23.761719 138.546875 C 25.050781 146.894531 27.4375 155.144531 30.914062 162.796875 C 34.390625 170.449219 38.859375 177.40625 43.925781 183.46875 C 49.089844 189.53125 54.851562 194.601562 60.714844 198.675781 C 61.308594 199.070312 61.507812 199.070312 61.210938 198.574219 C 60.910156 198.179688 60.117188 197.480469 59.621094 197.085938 C 53.859375 193.011719 48.296875 187.941406 43.527344 181.878906 C 38.761719 175.816406 34.488281 168.960938 31.3125 161.503906 C 28.132812 154.050781 25.847656 146.101562 24.65625 138.050781 C 23.5625 130 23.363281 121.753906 24.160156 113.800781 C 24.257812 112.3125 24.355469 110.917969 24.058594 110.722656 C 23.859375 110.722656 23.464844 111.8125 23.265625 113.40625 Z M 23.265625 113.40625 " fill-opacity="1" fill-rule="nonzero"/><path fill="#ffffff" d="M 122.003906 238.527344 C 113.0625 238.429688 104.121094 237.234375 95.378906 235.046875 C 86.738281 232.863281 78.296875 229.582031 70.347656 225.507812 C 62.402344 221.433594 55.050781 216.363281 48.199219 210.699219 C 41.441406 205.035156 35.285156 198.574219 29.820312 191.617188 C 19.988281 177.804688 13.132812 162.101562 9.65625 145.605469 C 9.257812 143.21875 8.5625 141.332031 8.265625 141.429688 C 7.867188 141.429688 7.96875 143.515625 8.363281 145.902344 C 9.953125 154.351562 12.535156 162.597656 15.914062 170.449219 C 15.714844 170.25 15.515625 170.25 15.515625 170.351562 C 3.199219 142.722656 2.105469 110.222656 12.636719 81.601562 C 13.230469 80.011719 13.53125 78.820312 13.332031 78.71875 C 13.132812 78.621094 12.4375 79.8125 11.839844 81.402344 C 6.277344 96.308594 3.894531 112.410156 4.6875 128.210938 C 5.484375 144.015625 9.554688 159.617188 16.511719 173.730469 C 16.90625 174.824219 17.503906 176.015625 18.199219 177.308594 C 21.277344 183.171875 24.855469 188.738281 28.925781 193.90625 C 32.898438 199.070312 37.371094 203.84375 42.136719 208.316406 C 51.675781 217.160156 62.699219 224.414062 74.820312 229.78125 C 83.460938 233.558594 92.402344 236.441406 101.441406 238.230469 C 110.578125 240.019531 119.71875 240.714844 128.957031 240.515625 C 138.191406 240.316406 147.332031 238.925781 156.171875 236.441406 C 165.113281 233.957031 173.753906 230.476562 181.800781 225.90625 C 194.613281 218.652344 205.542969 208.613281 214.78125 197.085938 C 218.652344 192.3125 222.328125 187.046875 225.40625 181.78125 C 226.996094 179.097656 228.289062 176.414062 229.578125 173.730469 C 230.773438 170.945312 231.863281 168.261719 232.757812 165.582031 C 237.527344 150.671875 238.320312 136.558594 236.929688 123.441406 C 236.832031 122.648438 236.730469 122.546875 236.632812 123.144531 C 236.535156 123.640625 236.433594 124.734375 236.535156 125.332031 C 237.128906 131.890625 237.128906 138.847656 236.234375 145.902344 C 235.441406 152.859375 233.949219 159.914062 232.0625 166.476562 C 227.097656 178.898438 220.042969 190.425781 211.402344 200.464844 C 202.660156 210.5 192.429688 219.046875 181.007812 225.90625 C 176.4375 228.289062 171.667969 230.378906 166.902344 231.96875 C 162.132812 233.65625 157.265625 234.851562 152.398438 235.941406 C 142.464844 237.730469 132.433594 238.726562 122.003906 238.527344 Z M 122.003906 238.527344 " fill-opacity="1" fill-rule="nonzero"/></g></g></g></g></svg>